<?xml version="1.0" encoding="utf-8" standalone="no"?>
<!DOCTYPE svg PUBLIC "-//W3C//DTD SVG 1.1//EN"
  "http://www.w3.org/Graphics/SVG/1.1/DTD/svg11.dtd">
<!-- Created with matplotlib (https://matplotlib.org/) -->
<svg height="345.6pt" version="1.1" viewBox="0 0 460.8 345.6" width="460.8pt" xmlns="http://www.w3.org/2000/svg" xmlns:xlink="http://www.w3.org/1999/xlink">
 <metadata>
  <rdf:RDF xmlns:cc="http://creativecommons.org/ns#" xmlns:dc="http://purl.org/dc/elements/1.1/" xmlns:rdf="http://www.w3.org/1999/02/22-rdf-syntax-ns#">
   <cc:Work>
    <dc:type rdf:resource="http://purl.org/dc/dcmitype/StillImage"/>
    <dc:date>2022-05-23T16:41:43.731280</dc:date>
    <dc:format>image/svg+xml</dc:format>
    <dc:creator>
     <cc:Agent>
      <dc:title>Matplotlib v3.3.2, https://matplotlib.org/</dc:title>
     </cc:Agent>
    </dc:creator>
   </cc:Work>
  </rdf:RDF>
 </metadata>
 <defs>
  <style type="text/css">*{stroke-linecap:butt;stroke-linejoin:round;}</style>
 </defs>
 <g id="figure_1">
  <g id="patch_1">
   <path d="M 0 345.6 
L 460.8 345.6 
L 460.8 0 
L 0 0 
z
" style="fill:#ffffff;"/>
  </g>
  <g id="axes_1">
   <g id="patch_2">
    <path d="M 57.6 307.584 
L 414.72 307.584 
L 414.72 41.472 
L 57.6 41.472 
z
" style="fill:#ffffff;"/>
   </g>
   <g id="matplotlib.axis_1">
    <g id="xtick_1">
     <g id="line2d_1">
      <path clip-path="url(#p7bcc47c85f)" d="M 99.463349 307.584 
L 99.463349 41.472 
" style="fill:none;stroke:#b0b0b0;stroke-dasharray:2.96,1.28;stroke-dashoffset:0;stroke-opacity:0.5;stroke-width:0.8;"/>
     </g>
     <g id="line2d_2">
      <defs>
       <path d="M 0 0 
L 0 3.5 
" id="md712aa16e4" style="stroke:#000000;stroke-width:0.8;"/>
      </defs>
      <g>
       <use style="stroke:#000000;stroke-width:0.8;" x="99.463349" xlink:href="#md712aa16e4" y="307.584"/>
      </g>
     </g>
     <g id="text_1">
      <!-- 2500 -->
      <g transform="translate(89.463349 321.459)scale(0.1 -0.1)">
       <defs>
        <path d="M 4.6875 3.90625 
Q 5.078125 9.765625 10.15625 14.453125 
Q 15.234375 19.140625 23.046875 29.09375 
Q 30.859375 39.0625 33.203125 44.53125 
Q 35.546875 50 34.953125 53.90625 
Q 34.375 57.8125 31.25 60.34375 
Q 28.125 62.890625 24.015625 62.5 
Q 19.921875 62.109375 16.203125 59.375 
Q 12.5 56.640625 10.546875 51.171875 
L 3.125 52.34375 
Q 6.25 61.328125 11.125 65.421875 
Q 16.015625 69.53125 22.65625 69.921875 
Q 26.5625 70.3125 29.6875 69.71875 
Q 32.8125 69.140625 36.125 66.984375 
Q 39.453125 64.84375 41.59375 60.546875 
Q 43.75 56.25 43.15625 50.1875 
Q 42.578125 44.140625 37.109375 35.734375 
Q 31.640625 27.34375 16.015625 9.375 
L 44.140625 9.375 
L 44.140625 2.34375 
L 4.6875 2.34375 
z
" id="SimHei-50"/>
        <path d="M 8.59375 20.703125 
Q 11.328125 10.15625 17.96875 8.984375 
Q 24.609375 7.8125 28.703125 10.34375 
Q 32.8125 12.890625 34.5625 16.984375 
Q 36.328125 21.09375 36.125 26.171875 
Q 35.9375 31.25 33.390625 34.765625 
Q 30.859375 38.28125 26.953125 39.453125 
Q 23.046875 40.625 18.15625 39.453125 
Q 13.28125 38.28125 10.15625 33.984375 
L 3.515625 34.765625 
Q 4.296875 37.109375 10.9375 68.359375 
L 41.796875 68.359375 
L 41.796875 61.328125 
L 16.796875 61.328125 
Q 14.84375 50.78125 12.890625 44.53125 
Q 18.75 47.265625 23.828125 47.0625 
Q 28.90625 46.875 33.59375 44.71875 
Q 38.28125 42.578125 40.421875 38.859375 
Q 42.578125 35.15625 43.546875 31.4375 
Q 44.53125 27.734375 44.328125 23.4375 
Q 44.140625 19.140625 42.578125 14.640625 
Q 41.015625 10.15625 37.890625 7.21875 
Q 34.765625 4.296875 30.265625 2.53125 
Q 25.78125 0.78125 19.921875 1.171875 
Q 14.0625 1.5625 8.78125 5.46875 
Q 3.515625 9.375 1.5625 18.75 
z
" id="SimHei-53"/>
        <path d="M 3.125 29.296875 
Q 3.90625 50 6.4375 56.046875 
Q 8.984375 62.109375 13.671875 66.015625 
Q 18.359375 69.921875 25.1875 69.921875 
Q 32.03125 69.921875 37.109375 64.25 
Q 42.1875 58.59375 43.75 50 
Q 45.3125 41.40625 44.71875 30.265625 
Q 44.140625 19.140625 40.8125 12.109375 
Q 37.5 5.078125 30.859375 2.34375 
Q 24.21875 -0.390625 17.578125 2.921875 
Q 10.9375 6.25 8.203125 11.71875 
Q 5.46875 17.1875 4.296875 23.234375 
Q 3.125 29.296875 3.90625 50 
z
M 12.890625 52.734375 
Q 10.546875 31.25 12.5 22.84375 
Q 14.453125 14.453125 18.9375 10.9375 
Q 23.4375 7.421875 28.125 9.5625 
Q 32.8125 11.71875 34.953125 18.15625 
Q 37.109375 24.609375 37.109375 32.21875 
Q 37.109375 39.84375 36.515625 46.09375 
Q 35.9375 52.34375 33 57.421875 
Q 30.078125 62.5 25.1875 62.6875 
Q 20.3125 62.890625 16.59375 57.8125 
Q 12.890625 52.734375 10.546875 31.25 
z
" id="SimHei-48"/>
       </defs>
       <use xlink:href="#SimHei-50"/>
       <use x="50" xlink:href="#SimHei-53"/>
       <use x="100" xlink:href="#SimHei-48"/>
       <use x="150" xlink:href="#SimHei-48"/>
      </g>
     </g>
    </g>
    <g id="xtick_2">
     <g id="line2d_3">
      <path clip-path="url(#p7bcc47c85f)" d="M 142.181053 307.584 
L 142.181053 41.472 
" style="fill:none;stroke:#b0b0b0;stroke-dasharray:2.96,1.28;stroke-dashoffset:0;stroke-opacity:0.5;stroke-width:0.8;"/>
     </g>
     <g id="line2d_4">
      <g>
       <use style="stroke:#000000;stroke-width:0.8;" x="142.181053" xlink:href="#md712aa16e4" y="307.584"/>
      </g>
     </g>
     <g id="text_2">
      <!-- 5000 -->
      <g transform="translate(132.181053 321.459)scale(0.1 -0.1)">
       <use xlink:href="#SimHei-53"/>
       <use x="50" xlink:href="#SimHei-48"/>
       <use x="100" xlink:href="#SimHei-48"/>
       <use x="150" xlink:href="#SimHei-48"/>
      </g>
     </g>
    </g>
    <g id="xtick_3">
     <g id="line2d_5">
      <path clip-path="url(#p7bcc47c85f)" d="M 184.898756 307.584 
L 184.898756 41.472 
" style="fill:none;stroke:#b0b0b0;stroke-dasharray:2.96,1.28;stroke-dashoffset:0;stroke-opacity:0.5;stroke-width:0.8;"/>
     </g>
     <g id="line2d_6">
      <g>
       <use style="stroke:#000000;stroke-width:0.8;" x="184.898756" xlink:href="#md712aa16e4" y="307.584"/>
      </g>
     </g>
     <g id="text_3">
      <!-- 7500 -->
      <g transform="translate(174.898756 321.459)scale(0.1 -0.1)">
       <defs>
        <path d="M 13.28125 2.34375 
Q 20.3125 32.03125 37.890625 61.328125 
L 4.296875 61.328125 
L 4.296875 68.359375 
L 46.09375 68.359375 
L 46.09375 61.71875 
Q 27.734375 32.03125 21.875 2.34375 
L 13.28125 2.34375 
z
" id="SimHei-55"/>
       </defs>
       <use xlink:href="#SimHei-55"/>
       <use x="50" xlink:href="#SimHei-53"/>
       <use x="100" xlink:href="#SimHei-48"/>
       <use x="150" xlink:href="#SimHei-48"/>
      </g>
     </g>
    </g>
    <g id="xtick_4">
     <g id="line2d_7">
      <path clip-path="url(#p7bcc47c85f)" d="M 227.616459 307.584 
L 227.616459 41.472 
" style="fill:none;stroke:#b0b0b0;stroke-dasharray:2.96,1.28;stroke-dashoffset:0;stroke-opacity:0.5;stroke-width:0.8;"/>
     </g>
     <g id="line2d_8">
      <g>
       <use style="stroke:#000000;stroke-width:0.8;" x="227.616459" xlink:href="#md712aa16e4" y="307.584"/>
      </g>
     </g>
     <g id="text_4">
      <!-- 10000 -->
      <g transform="translate(215.116459 321.459)scale(0.1 -0.1)">
       <defs>
        <path d="M 21.875 56.25 
Q 16.796875 51.171875 8.984375 46.484375 
L 8.984375 53.90625 
Q 18.75 60.546875 25 69.53125 
L 29.6875 69.53125 
L 29.6875 2.34375 
L 21.875 2.34375 
z
" id="SimHei-49"/>
       </defs>
       <use xlink:href="#SimHei-49"/>
       <use x="50" xlink:href="#SimHei-48"/>
       <use x="100" xlink:href="#SimHei-48"/>
       <use x="150" xlink:href="#SimHei-48"/>
       <use x="200" xlink:href="#SimHei-48"/>
      </g>
     </g>
    </g>
    <g id="xtick_5">
     <g id="line2d_9">
      <path clip-path="url(#p7bcc47c85f)" d="M 270.334163 307.584 
L 270.334163 41.472 
" style="fill:none;stroke:#b0b0b0;stroke-dasharray:2.96,1.28;stroke-dashoffset:0;stroke-opacity:0.5;stroke-width:0.8;"/>
     </g>
     <g id="line2d_10">
      <g>
       <use style="stroke:#000000;stroke-width:0.8;" x="270.334163" xlink:href="#md712aa16e4" y="307.584"/>
      </g>
     </g>
     <g id="text_5">
      <!-- 12500 -->
      <g transform="translate(257.834163 321.459)scale(0.1 -0.1)">
       <use xlink:href="#SimHei-49"/>
       <use x="50" xlink:href="#SimHei-50"/>
       <use x="100" xlink:href="#SimHei-53"/>
       <use x="150" xlink:href="#SimHei-48"/>
       <use x="200" xlink:href="#SimHei-48"/>
      </g>
     </g>
    </g>
    <g id="xtick_6">
     <g id="line2d_11">
      <path clip-path="url(#p7bcc47c85f)" d="M 313.051866 307.584 
L 313.051866 41.472 
" style="fill:none;stroke:#b0b0b0;stroke-dasharray:2.96,1.28;stroke-dashoffset:0;stroke-opacity:0.5;stroke-width:0.8;"/>
     </g>
     <g id="line2d_12">
      <g>
       <use style="stroke:#000000;stroke-width:0.8;" x="313.051866" xlink:href="#md712aa16e4" y="307.584"/>
      </g>
     </g>
     <g id="text_6">
      <!-- 15000 -->
      <g transform="translate(300.551866 321.459)scale(0.1 -0.1)">
       <use xlink:href="#SimHei-49"/>
       <use x="50" xlink:href="#SimHei-53"/>
       <use x="100" xlink:href="#SimHei-48"/>
       <use x="150" xlink:href="#SimHei-48"/>
       <use x="200" xlink:href="#SimHei-48"/>
      </g>
     </g>
    </g>
    <g id="xtick_7">
     <g id="line2d_13">
      <path clip-path="url(#p7bcc47c85f)" d="M 355.769569 307.584 
L 355.769569 41.472 
" style="fill:none;stroke:#b0b0b0;stroke-dasharray:2.96,1.28;stroke-dashoffset:0;stroke-opacity:0.5;stroke-width:0.8;"/>
     </g>
     <g id="line2d_14">
      <g>
       <use style="stroke:#000000;stroke-width:0.8;" x="355.769569" xlink:href="#md712aa16e4" y="307.584"/>
      </g>
     </g>
     <g id="text_7">
      <!-- 17500 -->
      <g transform="translate(343.269569 321.459)scale(0.1 -0.1)">
       <use xlink:href="#SimHei-49"/>
       <use x="50" xlink:href="#SimHei-55"/>
       <use x="100" xlink:href="#SimHei-53"/>
       <use x="150" xlink:href="#SimHei-48"/>
       <use x="200" xlink:href="#SimHei-48"/>
      </g>
     </g>
    </g>
    <g id="xtick_8">
     <g id="line2d_15">
      <path clip-path="url(#p7bcc47c85f)" d="M 398.487273 307.584 
L 398.487273 41.472 
" style="fill:none;stroke:#b0b0b0;stroke-dasharray:2.96,1.28;stroke-dashoffset:0;stroke-opacity:0.5;stroke-width:0.8;"/>
     </g>
     <g id="line2d_16">
      <g>
       <use style="stroke:#000000;stroke-width:0.8;" x="398.487273" xlink:href="#md712aa16e4" y="307.584"/>
      </g>
     </g>
     <g id="text_8">
      <!-- 20000 -->
      <g transform="translate(385.987273 321.459)scale(0.1 -0.1)">
       <use xlink:href="#SimHei-50"/>
       <use x="50" xlink:href="#SimHei-48"/>
       <use x="100" xlink:href="#SimHei-48"/>
       <use x="150" xlink:href="#SimHei-48"/>
       <use x="200" xlink:href="#SimHei-48"/>
      </g>
     </g>
    </g>
    <g id="text_9">
     <!-- 训练集数量 -->
     <g transform="translate(211.16 334.67775)scale(0.1 -0.1)">
      <defs>
       <path d="M 25.78125 51.5625 
Q 25.390625 42.578125 25.390625 34.765625 
L 25.390625 10.546875 
Q 30.46875 17.578125 32.03125 19.921875 
Q 33.984375 17.578125 36.71875 14.0625 
Q 31.640625 7.8125 28.125 3.3125 
Q 24.609375 -1.171875 20.703125 -6.640625 
Q 17.96875 -3.125 14.84375 -0.78125 
Q 17.96875 3.515625 17.96875 9.765625 
L 17.96875 44.921875 
L 15.234375 44.921875 
Q 9.375 44.921875 4.6875 44.53125 
L 4.6875 51.953125 
Q 9.375 51.5625 15.234375 51.5625 
z
M 53.515625 71.875 
Q 52.734375 67.96875 52.921875 52.53125 
Q 53.125 37.109375 52.140625 29.484375 
Q 51.171875 21.875 48.234375 13.078125 
Q 45.3125 4.296875 38.28125 -5.859375 
Q 34.765625 -3.125 30.859375 -1.953125 
Q 39.84375 7.8125 43.15625 21.28125 
Q 46.484375 34.765625 46.09375 52.140625 
Q 45.703125 69.53125 45.3125 73.046875 
Q 49.21875 72.265625 53.515625 71.875 
z
M 91.796875 73.4375 
Q 91.40625 70.3125 91.40625 62.109375 
L 91.40625 9.765625 
Q 91.40625 1.953125 91.796875 -6.25 
L 84.375 -6.25 
Q 84.765625 1.953125 84.765625 9.375 
L 84.765625 62.109375 
Q 84.765625 70.3125 84.375 73.4375 
L 91.796875 73.4375 
z
M 71.875 2.734375 
L 64.453125 2.734375 
Q 64.84375 11.328125 64.84375 17.96875 
L 64.84375 56.25 
Q 64.84375 63.28125 64.453125 67.96875 
L 71.875 67.96875 
z
M 15.625 80.46875 
Q 25.78125 71.875 32.8125 64.0625 
Q 29.296875 61.328125 27.34375 58.59375 
Q 16.40625 71.09375 10.9375 75 
Q 13.28125 77.34375 15.625 80.46875 
z
" id="SimHei-35757"/>
       <path d="M 51.5625 59.765625 
Q 46.09375 59.765625 37.5 59.375 
L 37.5 66.40625 
Q 46.09375 66.015625 51.953125 66.015625 
L 56.640625 66.015625 
Q 60.546875 77.34375 60.9375 80.859375 
Q 65.625 78.515625 69.53125 76.953125 
Q 67.96875 75.390625 66.59375 72.0625 
Q 65.234375 68.75 64.0625 66.015625 
L 78.515625 66.015625 
Q 84.765625 66.015625 92.1875 66.40625 
L 92.1875 59.375 
Q 86.71875 59.765625 78.515625 59.765625 
L 62.109375 59.765625 
Q 60.15625 55.078125 57.8125 49.21875 
L 73.046875 49.21875 
Q 72.65625 44.921875 72.65625 38.671875 
L 72.65625 30.859375 
L 77.734375 30.859375 
Q 83.59375 30.859375 90.625 31.25 
L 90.625 24.21875 
Q 83.59375 24.609375 77.734375 24.609375 
L 72.65625 24.609375 
L 72.65625 1.953125 
Q 72.65625 -4.6875 69.71875 -6.640625 
Q 66.796875 -8.59375 57.03125 -9.765625 
Q 56.640625 -5.859375 53.90625 -1.5625 
Q 63.671875 -1.953125 64.640625 -0.390625 
Q 65.625 1.171875 65.625 5.078125 
L 65.625 24.609375 
L 53.515625 24.609375 
Q 50.78125 24.609375 48.4375 24.40625 
Q 46.09375 24.21875 42.96875 23.046875 
Q 41.40625 26.953125 39.84375 30.46875 
Q 43.75 31.640625 48.828125 43.359375 
Q 46.09375 43.359375 38.28125 42.96875 
L 38.28125 49.609375 
Q 47.265625 49.21875 50.78125 49.21875 
Q 53.125 55.078125 54.6875 59.765625 
z
M 25.78125 46.09375 
Q 29.296875 51.5625 32.8125 60.9375 
Q 36.328125 58.203125 40.234375 56.25 
Q 36.328125 51.171875 31.640625 42.96875 
Q 26.953125 34.765625 16.796875 21.09375 
Q 20.3125 21.875 37.5 24.609375 
Q 36.71875 20.3125 37.109375 17.96875 
Q 28.515625 17.1875 10.15625 12.890625 
Q 8.203125 16.796875 6.25 19.921875 
Q 9.765625 21.875 13.859375 27.140625 
Q 17.96875 32.421875 22.65625 40.234375 
Q 20.3125 40.625 15.8125 40.03125 
Q 11.328125 39.453125 7.03125 38.28125 
Q 5.46875 41.796875 3.90625 45.703125 
Q 7.8125 48.046875 12.6875 58.203125 
Q 17.578125 68.359375 20.703125 78.125 
Q 25 75.390625 28.90625 74.21875 
Q 25 68.359375 21.671875 61.90625 
Q 18.359375 55.46875 12.5 45.703125 
Q 21.484375 45.703125 25.78125 46.09375 
z
M 37.890625 10.9375 
Q 37.5 6.640625 37.890625 3.90625 
Q 31.25 2.34375 22.84375 -0.390625 
Q 14.453125 -3.125 7.421875 -6.640625 
Q 6.25 -2.34375 4.6875 1.953125 
Q 14.84375 4.296875 18.546875 5.265625 
Q 22.265625 6.25 37.890625 10.9375 
z
M 58.203125 13.671875 
Q 57.03125 12.5 51.359375 6.25 
Q 45.703125 0 38.671875 -7.421875 
Q 35.9375 -3.90625 33.59375 -1.953125 
Q 37.890625 1.5625 42.96875 7.21875 
Q 48.046875 12.890625 51.953125 19.140625 
Q 54.296875 16.40625 58.203125 13.671875 
z
M 82.421875 19.140625 
Q 92.578125 5.859375 96.875 -1.5625 
Q 92.96875 -3.125 89.84375 -5.859375 
Q 85.546875 2.734375 76.5625 14.84375 
Q 79.296875 16.40625 82.421875 19.140625 
z
M 65.625 30.859375 
L 65.625 43.359375 
L 55.859375 43.359375 
Q 51.953125 35.15625 49.609375 30.859375 
z
" id="SimHei-32451"/>
       <path d="M 35.546875 76.953125 
Q 33.203125 75 31.640625 72.84375 
Q 30.078125 70.703125 28.90625 67.96875 
L 76.953125 67.96875 
Q 82.8125 67.96875 89.84375 68.359375 
L 89.84375 62.109375 
L 57.03125 62.109375 
L 57.03125 55.859375 
L 72.265625 55.859375 
Q 76.953125 55.859375 83.203125 56.25 
L 83.203125 49.609375 
Q 76.953125 50 72.265625 50 
L 57.03125 50 
L 57.03125 43.75 
L 73.046875 43.75 
Q 78.125 43.75 84.765625 44.140625 
L 84.765625 37.5 
Q 78.125 37.890625 73.046875 37.890625 
L 57.03125 37.890625 
L 57.03125 32.421875 
L 76.171875 32.421875 
Q 82.421875 32.421875 88.671875 32.8125 
L 88.671875 26.171875 
Q 82.8125 26.5625 76.5625 26.5625 
L 25.78125 26.5625 
L 25.78125 23.4375 
L 17.96875 23.4375 
Q 18.75 30.46875 18.75 36.328125 
L 18.75 54.296875 
Q 16.40625 50.78125 14.640625 48.828125 
Q 12.890625 46.875 10.546875 44.140625 
Q 7.8125 46.875 4.6875 48.828125 
Q 7.421875 51.953125 13.671875 59.765625 
Q 19.921875 67.578125 22.84375 72.65625 
Q 25.78125 77.734375 26.953125 81.640625 
Q 30.46875 79.6875 35.546875 76.953125 
z
M 46.484375 18.75 
Q 46.484375 20.3125 46.09375 25.390625 
L 54.296875 25.390625 
Q 53.90625 19.921875 53.90625 18.75 
L 78.90625 18.75 
Q 85.9375 18.75 92.578125 19.140625 
L 92.578125 12.890625 
L 64.84375 12.890625 
Q 70.3125 8.203125 76.953125 5.65625 
Q 83.59375 3.125 95.3125 0.390625 
Q 91.796875 -3.515625 90.234375 -7.421875 
Q 82.421875 -4.6875 77.53125 -2.53125 
Q 72.65625 -0.390625 68.546875 2.140625 
Q 64.453125 4.6875 61.71875 7.21875 
Q 58.984375 9.765625 55.859375 12.890625 
L 53.90625 12.890625 
L 53.90625 3.90625 
Q 53.90625 -4.296875 54.6875 -10.15625 
L 46.09375 -10.15625 
Q 46.484375 -4.6875 46.484375 3.90625 
L 46.484375 12.890625 
L 44.921875 12.890625 
Q 42.1875 8.984375 38.671875 5.859375 
Q 35.15625 2.734375 31.046875 0.1875 
Q 26.953125 -2.34375 22.265625 -4.6875 
Q 17.578125 -7.03125 10.9375 -8.984375 
Q 9.375 -5.078125 6.25 -1.171875 
Q 14.453125 0.78125 23.046875 4.09375 
Q 31.640625 7.421875 35.9375 12.890625 
L 7.8125 12.890625 
L 7.8125 19.140625 
Q 12.5 18.75 21.875 18.75 
z
M 49.21875 43.75 
L 49.21875 50 
L 25.78125 50 
L 25.78125 43.75 
z
M 49.21875 55.859375 
L 49.21875 62.109375 
L 25.78125 62.109375 
L 25.78125 55.859375 
z
M 49.21875 32.421875 
L 49.21875 37.890625 
L 25.78125 37.890625 
L 25.78125 32.421875 
z
M 53.90625 82.03125 
Q 55.859375 80.46875 58 78.125 
Q 60.15625 75.78125 62.5 72.65625 
Q 60.15625 70.703125 55.859375 68.359375 
Q 53.515625 71.484375 51.953125 73.4375 
Q 50.390625 75.390625 48.046875 77.34375 
Q 51.171875 79.296875 53.90625 82.03125 
z
" id="SimHei-38598"/>
       <path d="M 70.703125 76.953125 
Q 69.921875 75 68.75 71.671875 
Q 67.578125 68.359375 65.234375 59.765625 
L 83.203125 59.765625 
Q 87.109375 59.765625 92.578125 60.15625 
L 92.578125 53.125 
Q 88.28125 53.515625 85.9375 53.515625 
Q 85.9375 47.265625 83.78125 33.78125 
Q 81.640625 20.3125 76.171875 10.546875 
Q 80.078125 5.859375 84.953125 2.140625 
Q 89.84375 -1.5625 94.140625 -3.125 
Q 89.453125 -6.640625 87.890625 -9.765625 
Q 83.203125 -7.03125 79.296875 -3.515625 
Q 75.390625 0 71.484375 5.078125 
Q 67.1875 0.390625 62.296875 -2.921875 
Q 57.421875 -6.25 50 -10.15625 
Q 48.046875 -6.640625 44.53125 -4.6875 
Q 50.390625 -2.34375 57.03125 1.953125 
Q 63.671875 6.25 67.1875 10.546875 
Q 64.453125 16.015625 61.90625 22.265625 
Q 59.375 28.515625 57.421875 38.671875 
Q 56.25 35.546875 53.515625 30.46875 
Q 50.78125 32.03125 46.875 33.59375 
Q 53.125 44.53125 57.03125 57.421875 
Q 60.9375 70.3125 62.109375 79.6875 
Q 66.796875 77.734375 70.703125 76.953125 
z
M 32.8125 35.15625 
Q 31.25 33.59375 29.296875 30.078125 
L 50.78125 30.078125 
Q 48.4375 20.3125 42.578125 10.546875 
Q 48.828125 8.203125 52.34375 6.25 
Q 50.390625 3.515625 48.828125 0.390625 
Q 45.3125 2.734375 38.28125 5.078125 
Q 30.46875 -3.515625 11.328125 -10.15625 
Q 9.375 -5.859375 6.25 -4.296875 
Q 24.609375 0 31.25 7.421875 
Q 20.3125 10.15625 13.28125 12.109375 
Q 15.625 15.625 19.53125 23.828125 
Q 15.625 23.828125 6.640625 23.4375 
L 6.640625 30.46875 
Q 14.0625 30.078125 21.875 30.078125 
Q 23.4375 33.59375 24.21875 37.890625 
Q 28.515625 36.328125 32.8125 35.15625 
z
M 27.734375 61.71875 
Q 27.734375 71.09375 27.34375 79.6875 
L 35.15625 79.6875 
Q 34.765625 71.484375 34.765625 61.71875 
Q 48.046875 61.71875 53.515625 62.109375 
L 53.515625 55.078125 
Q 48.046875 55.46875 34.765625 55.46875 
Q 34.765625 44.140625 35.15625 37.890625 
L 27.34375 37.890625 
Q 27.734375 43.359375 27.734375 51.5625 
Q 25.78125 48.4375 20.3125 43.546875 
Q 14.84375 38.671875 10.15625 35.9375 
Q 8.203125 39.453125 4.296875 41.015625 
Q 7.8125 42.1875 13.671875 46.484375 
Q 19.53125 50.78125 22.65625 55.46875 
Q 14.84375 55.46875 7.8125 55.078125 
L 7.8125 62.109375 
Q 14.453125 61.71875 27.734375 61.71875 
z
M 62.109375 49.609375 
Q 65.625 26.5625 71.875 17.578125 
Q 75.78125 26.5625 77.140625 35.734375 
Q 78.515625 44.921875 78.90625 53.515625 
L 63.671875 53.515625 
L 62.109375 49.609375 
z
M 22.65625 15.625 
Q 27.34375 14.453125 35.546875 12.5 
Q 38.671875 16.40625 41.40625 23.828125 
L 26.953125 23.828125 
Q 25 19.921875 22.65625 15.625 
z
M 51.953125 75.390625 
Q 50 72.265625 48.828125 69.53125 
Q 47.65625 66.796875 45.703125 62.890625 
Q 42.578125 64.453125 39.453125 65.234375 
Q 42.578125 70.3125 45.3125 78.125 
Q 49.21875 76.171875 51.953125 75.390625 
z
M 40.234375 52.734375 
Q 45.3125 47.65625 50 42.578125 
Q 47.65625 40.625 44.921875 37.890625 
Q 39.453125 44.53125 35.9375 48.4375 
Q 38.28125 50.390625 40.234375 52.734375 
z
M 14.453125 78.125 
Q 19.921875 72.65625 23.4375 67.1875 
L 17.578125 63.671875 
Q 14.84375 69.140625 9.375 73.828125 
Q 12.890625 76.171875 14.453125 78.125 
z
" id="SimHei-25968"/>
       <path d="M 82.03125 39.0625 
Q 81.640625 34.375 81.640625 26.5625 
Q 81.640625 19.140625 82.03125 14.84375 
L 53.515625 14.84375 
L 53.515625 9.765625 
L 71.484375 9.765625 
Q 78.125 9.765625 83.984375 10.15625 
L 83.984375 4.296875 
Q 78.515625 4.6875 71.484375 4.6875 
L 53.515625 4.6875 
L 53.515625 -1.171875 
L 80.078125 -1.171875 
Q 86.328125 -1.171875 92.578125 -0.78125 
L 92.578125 -6.640625 
Q 86.328125 -6.25 80.078125 -6.25 
L 19.921875 -6.25 
Q 14.0625 -6.25 7.421875 -6.640625 
L 7.421875 -0.78125 
Q 14.453125 -0.78125 19.921875 -1.171875 
L 46.484375 -1.171875 
L 46.484375 4.6875 
L 26.953125 4.6875 
Q 21.09375 4.6875 15.234375 3.90625 
L 15.234375 10.15625 
Q 21.484375 9.765625 26.953125 9.765625 
L 46.484375 9.765625 
L 46.484375 14.84375 
L 17.96875 14.84375 
Q 18.359375 21.484375 18.359375 27.734375 
Q 18.359375 33.984375 17.96875 39.0625 
L 82.03125 39.0625 
z
M 81.25 77.34375 
Q 80.859375 71.484375 80.859375 66.40625 
Q 80.859375 61.328125 81.25 53.125 
L 18.75 53.125 
Q 19.140625 61.328125 19.140625 66.40625 
Q 19.140625 71.484375 18.75 77.34375 
L 81.25 77.34375 
z
M 76.5625 48.4375 
Q 85.9375 48.828125 93.75 49.21875 
L 93.75 42.96875 
Q 85.9375 43.359375 76.953125 43.359375 
L 25.78125 43.359375 
Q 15.234375 43.359375 5.078125 42.96875 
L 5.078125 49.21875 
Q 15.234375 48.828125 25.78125 48.4375 
z
M 73.828125 57.8125 
L 73.828125 62.890625 
L 26.171875 62.890625 
L 26.171875 57.8125 
z
M 73.828125 67.96875 
L 73.828125 72.65625 
L 26.171875 72.65625 
L 26.171875 67.96875 
z
M 74.21875 29.296875 
L 74.21875 33.984375 
L 53.515625 33.984375 
L 53.515625 29.296875 
z
M 46.484375 29.296875 
L 46.484375 33.984375 
L 25.78125 33.984375 
L 25.78125 29.296875 
z
M 46.484375 19.921875 
L 46.484375 24.21875 
L 25.78125 24.21875 
L 25.78125 19.921875 
z
M 74.21875 19.921875 
L 74.21875 24.21875 
L 53.515625 24.21875 
L 53.515625 19.921875 
z
" id="SimHei-37327"/>
      </defs>
      <use xlink:href="#SimHei-35757"/>
      <use x="100" xlink:href="#SimHei-32451"/>
      <use x="200" xlink:href="#SimHei-38598"/>
      <use x="300" xlink:href="#SimHei-25968"/>
      <use x="400" xlink:href="#SimHei-37327"/>
     </g>
    </g>
   </g>
   <g id="matplotlib.axis_2">
    <g id="ytick_1">
     <g id="line2d_17">
      <path clip-path="url(#p7bcc47c85f)" d="M 57.6 301.854316 
L 414.72 301.854316 
" style="fill:none;stroke:#b0b0b0;stroke-dasharray:2.96,1.28;stroke-dashoffset:0;stroke-opacity:0.5;stroke-width:0.8;"/>
     </g>
     <g id="line2d_18">
      <defs>
       <path d="M 0 0 
L -3.5 0 
" id="m35d7bb66fb" style="stroke:#000000;stroke-width:0.8;"/>
      </defs>
      <g>
       <use style="stroke:#000000;stroke-width:0.8;" x="57.6" xlink:href="#m35d7bb66fb" y="301.854316"/>
      </g>
     </g>
     <g id="text_10">
      <!-- 0.89 -->
      <g transform="translate(30.6 305.291816)scale(0.1 -0.1)">
       <defs>
        <path d="M 16.796875 1.953125 
L 7.8125 1.953125 
L 7.8125 10.546875 
L 16.796875 10.546875 
z
" id="SimHei-46"/>
        <path d="M 2.734375 16.796875 
Q 2.734375 26.171875 5.078125 30.65625 
Q 7.421875 35.15625 12.890625 37.890625 
Q 8.203125 40.625 6.640625 43.9375 
Q 5.078125 47.265625 4.875 51.5625 
Q 4.6875 55.859375 6.046875 58.984375 
Q 7.421875 62.109375 10.15625 64.84375 
Q 12.890625 67.578125 16.203125 68.546875 
Q 19.53125 69.53125 23.4375 69.53125 
Q 27.34375 69.53125 30.46875 68.75 
Q 33.59375 67.96875 37.109375 65.421875 
Q 40.625 62.890625 42.1875 58.203125 
Q 43.75 53.515625 41.984375 47.265625 
Q 40.234375 41.015625 32.8125 37.5 
Q 39.453125 35.546875 42.1875 31.4375 
Q 44.921875 27.34375 44.921875 21.484375 
Q 44.921875 15.625 43.15625 12.109375 
Q 41.40625 8.59375 39.25 6.25 
Q 37.109375 3.90625 33.390625 2.53125 
Q 29.6875 1.171875 24.015625 1.171875 
Q 18.359375 1.171875 14.25 2.53125 
Q 10.15625 3.90625 7.421875 6.640625 
Q 4.6875 9.375 3.703125 13.078125 
Q 2.734375 16.796875 2.734375 26.171875 
z
M 10.9375 26.5625 
Q 10.546875 17.1875 12.296875 13.671875 
Q 14.0625 10.15625 18.75 9.171875 
Q 23.4375 8.203125 28.515625 9.375 
Q 33.59375 10.546875 35.546875 14.84375 
Q 37.5 19.140625 36.90625 23.4375 
Q 36.328125 27.734375 32.03125 30.65625 
Q 27.734375 33.59375 22.65625 33.203125 
Q 17.578125 32.8125 14.25 29.6875 
Q 10.9375 26.5625 10.546875 17.1875 
z
M 12.109375 56.25 
Q 12.109375 48.4375 14.84375 44.921875 
Q 17.578125 41.40625 23.4375 41.40625 
Q 29.296875 41.40625 32.21875 44.921875 
Q 35.15625 48.4375 34.953125 53.3125 
Q 34.765625 58.203125 31.4375 60.546875 
Q 28.125 62.890625 22.453125 62.5 
Q 16.796875 62.109375 14.453125 59.171875 
Q 12.109375 56.25 12.109375 48.4375 
z
" id="SimHei-56"/>
        <path d="M 12.5 1.171875 
Q 21.09375 15.625 26.5625 27.34375 
Q 16.796875 25.78125 10.34375 29.875 
Q 3.90625 33.984375 2.53125 41.015625 
Q 1.171875 48.046875 2.734375 53.703125 
Q 4.296875 59.375 7.609375 63.078125 
Q 10.9375 66.796875 15.625 68.359375 
Q 20.3125 69.921875 24.015625 69.921875 
Q 27.734375 69.921875 31.640625 68.359375 
Q 35.546875 66.796875 38.671875 63.671875 
Q 41.796875 60.546875 42.96875 57.21875 
Q 44.140625 53.90625 44.140625 48.625 
Q 44.140625 43.359375 40.234375 35.15625 
Q 36.328125 26.953125 21.09375 1.171875 
z
M 9.765625 50 
Q 10.9375 39.84375 14.640625 36.515625 
Q 18.359375 33.203125 22.65625 33.59375 
Q 26.953125 33.984375 29.484375 35.9375 
Q 32.03125 37.890625 34.375 42.578125 
Q 35.9375 48.4375 35.15625 52.53125 
Q 34.375 56.640625 31.046875 59.375 
Q 27.734375 62.109375 23.828125 62.109375 
Q 21.484375 62.5 17.765625 60.9375 
Q 14.0625 59.375 11.90625 54.6875 
Q 9.765625 50 10.9375 39.84375 
z
" id="SimHei-57"/>
       </defs>
       <use xlink:href="#SimHei-48"/>
       <use x="50" xlink:href="#SimHei-46"/>
       <use x="100" xlink:href="#SimHei-56"/>
       <use x="150" xlink:href="#SimHei-57"/>
      </g>
     </g>
    </g>
    <g id="ytick_2">
     <g id="line2d_19">
      <path clip-path="url(#p7bcc47c85f)" d="M 57.6 270.022737 
L 414.72 270.022737 
" style="fill:none;stroke:#b0b0b0;stroke-dasharray:2.96,1.28;stroke-dashoffset:0;stroke-opacity:0.5;stroke-width:0.8;"/>
     </g>
     <g id="line2d_20">
      <g>
       <use style="stroke:#000000;stroke-width:0.8;" x="57.6" xlink:href="#m35d7bb66fb" y="270.022737"/>
      </g>
     </g>
     <g id="text_11">
      <!-- 0.90 -->
      <g transform="translate(30.6 273.460237)scale(0.1 -0.1)">
       <use xlink:href="#SimHei-48"/>
       <use x="50" xlink:href="#SimHei-46"/>
       <use x="100" xlink:href="#SimHei-57"/>
       <use x="150" xlink:href="#SimHei-48"/>
      </g>
     </g>
    </g>
    <g id="ytick_3">
     <g id="line2d_21">
      <path clip-path="url(#p7bcc47c85f)" d="M 57.6 238.191158 
L 414.72 238.191158 
" style="fill:none;stroke:#b0b0b0;stroke-dasharray:2.96,1.28;stroke-dashoffset:0;stroke-opacity:0.5;stroke-width:0.8;"/>
     </g>
     <g id="line2d_22">
      <g>
       <use style="stroke:#000000;stroke-width:0.8;" x="57.6" xlink:href="#m35d7bb66fb" y="238.191158"/>
      </g>
     </g>
     <g id="text_12">
      <!-- 0.91 -->
      <g transform="translate(30.6 241.628658)scale(0.1 -0.1)">
       <use xlink:href="#SimHei-48"/>
       <use x="50" xlink:href="#SimHei-46"/>
       <use x="100" xlink:href="#SimHei-57"/>
       <use x="150" xlink:href="#SimHei-49"/>
      </g>
     </g>
    </g>
    <g id="ytick_4">
     <g id="line2d_23">
      <path clip-path="url(#p7bcc47c85f)" d="M 57.6 206.359579 
L 414.72 206.359579 
" style="fill:none;stroke:#b0b0b0;stroke-dasharray:2.96,1.28;stroke-dashoffset:0;stroke-opacity:0.5;stroke-width:0.8;"/>
     </g>
     <g id="line2d_24">
      <g>
       <use style="stroke:#000000;stroke-width:0.8;" x="57.6" xlink:href="#m35d7bb66fb" y="206.359579"/>
      </g>
     </g>
     <g id="text_13">
      <!-- 0.92 -->
      <g transform="translate(30.6 209.797079)scale(0.1 -0.1)">
       <use xlink:href="#SimHei-48"/>
       <use x="50" xlink:href="#SimHei-46"/>
       <use x="100" xlink:href="#SimHei-57"/>
       <use x="150" xlink:href="#SimHei-50"/>
      </g>
     </g>
    </g>
    <g id="ytick_5">
     <g id="line2d_25">
      <path clip-path="url(#p7bcc47c85f)" d="M 57.6 174.528 
L 414.72 174.528 
" style="fill:none;stroke:#b0b0b0;stroke-dasharray:2.96,1.28;stroke-dashoffset:0;stroke-opacity:0.5;stroke-width:0.8;"/>
     </g>
     <g id="line2d_26">
      <g>
       <use style="stroke:#000000;stroke-width:0.8;" x="57.6" xlink:href="#m35d7bb66fb" y="174.528"/>
      </g>
     </g>
     <g id="text_14">
      <!-- 0.93 -->
      <g transform="translate(30.6 177.9655)scale(0.1 -0.1)">
       <defs>
        <path d="M 3.90625 19.140625 
L 10.9375 20.3125 
Q 12.5 15.234375 16.015625 11.90625 
Q 19.53125 8.59375 24.796875 8.78125 
Q 30.078125 8.984375 33.203125 13.078125 
Q 36.328125 17.1875 35.9375 22.453125 
Q 35.546875 27.734375 31.828125 30.65625 
Q 28.125 33.59375 19.921875 34.765625 
L 19.921875 39.84375 
Q 28.125 40.625 31.828125 44.140625 
Q 35.546875 47.65625 35.15625 53.3125 
Q 34.765625 58.984375 30.078125 61.515625 
Q 25.390625 64.0625 20.109375 62.109375 
Q 14.84375 60.15625 11.71875 51.171875 
L 4.6875 52.34375 
Q 7.03125 59.375 11.125 64.0625 
Q 15.234375 68.75 22.265625 69.53125 
Q 29.296875 70.3125 34.5625 67.765625 
Q 39.84375 65.234375 41.984375 59.953125 
Q 44.140625 54.6875 42.578125 48.4375 
Q 41.015625 42.1875 33.59375 37.5 
Q 39.0625 35.15625 41.984375 30.46875 
Q 44.921875 25.78125 43.9375 18.15625 
Q 42.96875 10.546875 37.109375 5.859375 
Q 31.25 1.171875 23.828125 1.359375 
Q 16.40625 1.5625 10.9375 6.046875 
Q 5.46875 10.546875 3.90625 19.140625 
z
" id="SimHei-51"/>
       </defs>
       <use xlink:href="#SimHei-48"/>
       <use x="50" xlink:href="#SimHei-46"/>
       <use x="100" xlink:href="#SimHei-57"/>
       <use x="150" xlink:href="#SimHei-51"/>
      </g>
     </g>
    </g>
    <g id="ytick_6">
     <g id="line2d_27">
      <path clip-path="url(#p7bcc47c85f)" d="M 57.6 142.696421 
L 414.72 142.696421 
" style="fill:none;stroke:#b0b0b0;stroke-dasharray:2.96,1.28;stroke-dashoffset:0;stroke-opacity:0.5;stroke-width:0.8;"/>
     </g>
     <g id="line2d_28">
      <g>
       <use style="stroke:#000000;stroke-width:0.8;" x="57.6" xlink:href="#m35d7bb66fb" y="142.696421"/>
      </g>
     </g>
     <g id="text_15">
      <!-- 0.94 -->
      <g transform="translate(30.6 146.133921)scale(0.1 -0.1)">
       <defs>
        <path d="M 31.25 17.1875 
L 1.171875 17.1875 
L 1.171875 23.828125 
L 32.8125 69.53125 
L 38.671875 69.53125 
L 38.671875 23.828125 
L 48.046875 23.828125 
L 48.046875 17.1875 
L 38.671875 17.1875 
L 38.671875 2.34375 
L 31.25 2.34375 
z
M 31.25 23.828125 
L 31.25 54.6875 
L 9.375 23.828125 
z
" id="SimHei-52"/>
       </defs>
       <use xlink:href="#SimHei-48"/>
       <use x="50" xlink:href="#SimHei-46"/>
       <use x="100" xlink:href="#SimHei-57"/>
       <use x="150" xlink:href="#SimHei-52"/>
      </g>
     </g>
    </g>
    <g id="ytick_7">
     <g id="line2d_29">
      <path clip-path="url(#p7bcc47c85f)" d="M 57.6 110.864842 
L 414.72 110.864842 
" style="fill:none;stroke:#b0b0b0;stroke-dasharray:2.96,1.28;stroke-dashoffset:0;stroke-opacity:0.5;stroke-width:0.8;"/>
     </g>
     <g id="line2d_30">
      <g>
       <use style="stroke:#000000;stroke-width:0.8;" x="57.6" xlink:href="#m35d7bb66fb" y="110.864842"/>
      </g>
     </g>
     <g id="text_16">
      <!-- 0.95 -->
      <g transform="translate(30.6 114.302342)scale(0.1 -0.1)">
       <use xlink:href="#SimHei-48"/>
       <use x="50" xlink:href="#SimHei-46"/>
       <use x="100" xlink:href="#SimHei-57"/>
       <use x="150" xlink:href="#SimHei-53"/>
      </g>
     </g>
    </g>
    <g id="ytick_8">
     <g id="line2d_31">
      <path clip-path="url(#p7bcc47c85f)" d="M 57.6 79.033263 
L 414.72 79.033263 
" style="fill:none;stroke:#b0b0b0;stroke-dasharray:2.96,1.28;stroke-dashoffset:0;stroke-opacity:0.5;stroke-width:0.8;"/>
     </g>
     <g id="line2d_32">
      <g>
       <use style="stroke:#000000;stroke-width:0.8;" x="57.6" xlink:href="#m35d7bb66fb" y="79.033263"/>
      </g>
     </g>
     <g id="text_17">
      <!-- 0.96 -->
      <g transform="translate(30.6 82.470763)scale(0.1 -0.1)">
       <defs>
        <path d="M 3.515625 19.53125 
Q 4.296875 30.859375 6.046875 34.765625 
Q 7.8125 38.671875 11.328125 44.53125 
L 27.34375 69.53125 
L 36.328125 69.53125 
L 19.921875 43.75 
Q 30.46875 46.484375 36.71875 42.96875 
Q 42.96875 39.453125 45.109375 34.953125 
Q 47.265625 30.46875 47.453125 25.1875 
Q 47.65625 19.921875 45.890625 14.84375 
Q 44.140625 9.765625 39.640625 5.65625 
Q 35.15625 1.5625 27.140625 1.171875 
Q 19.140625 0.78125 13.46875 4.09375 
Q 7.8125 7.421875 5.65625 13.46875 
Q 3.515625 19.53125 4.296875 30.859375 
z
M 12.5 16.015625 
Q 19.53125 8.59375 25.390625 8.203125 
Q 31.25 7.8125 35.15625 12.109375 
Q 39.0625 16.40625 39.0625 24.609375 
Q 39.0625 32.8125 34.171875 35.9375 
Q 29.296875 39.0625 23.234375 38.28125 
Q 17.1875 37.5 14.453125 32.421875 
Q 11.71875 27.34375 12.109375 21.671875 
Q 12.5 16.015625 19.53125 8.59375 
z
" id="SimHei-54"/>
       </defs>
       <use xlink:href="#SimHei-48"/>
       <use x="50" xlink:href="#SimHei-46"/>
       <use x="100" xlink:href="#SimHei-57"/>
       <use x="150" xlink:href="#SimHei-54"/>
      </g>
     </g>
    </g>
    <g id="ytick_9">
     <g id="line2d_33">
      <path clip-path="url(#p7bcc47c85f)" d="M 57.6 47.201684 
L 414.72 47.201684 
" style="fill:none;stroke:#b0b0b0;stroke-dasharray:2.96,1.28;stroke-dashoffset:0;stroke-opacity:0.5;stroke-width:0.8;"/>
     </g>
     <g id="line2d_34">
      <g>
       <use style="stroke:#000000;stroke-width:0.8;" x="57.6" xlink:href="#m35d7bb66fb" y="47.201684"/>
      </g>
     </g>
     <g id="text_18">
      <!-- 0.97 -->
      <g transform="translate(30.6 50.639184)scale(0.1 -0.1)">
       <use xlink:href="#SimHei-48"/>
       <use x="50" xlink:href="#SimHei-46"/>
       <use x="100" xlink:href="#SimHei-57"/>
       <use x="150" xlink:href="#SimHei-55"/>
      </g>
     </g>
    </g>
    <g id="text_19">
     <!-- 测试集准确率 -->
     <g transform="translate(25.35 204.528)rotate(-90)scale(0.1 -0.1)">
      <defs>
       <path d="M 62.890625 73.828125 
Q 62.5 69.921875 62.5 62.5 
L 62.5 34.765625 
Q 62.5 27.734375 62.890625 21.09375 
L 55.46875 21.09375 
L 55.46875 67.578125 
L 36.71875 67.578125 
L 36.71875 20.703125 
L 29.6875 20.703125 
Q 30.078125 27.734375 30.078125 34.765625 
L 30.078125 62.5 
Q 30.078125 65.625 29.6875 73.828125 
L 62.890625 73.828125 
z
M 92.1875 79.296875 
Q 91.796875 75 91.796875 68.359375 
L 91.796875 0 
Q 91.796875 -5.078125 88.28125 -6.640625 
Q 84.765625 -8.203125 77.734375 -9.375 
Q 76.953125 -5.078125 74.609375 -0.78125 
Q 80.078125 -0.78125 82.21875 -0.390625 
Q 84.375 0 84.375 3.90625 
L 84.375 68.359375 
Q 84.375 74.609375 83.984375 79.296875 
L 92.1875 79.296875 
z
M 51.171875 58.203125 
Q 50.390625 53.125 50 36.328125 
Q 49.609375 19.53125 44.328125 8.59375 
Q 39.0625 -2.34375 32.421875 -9.375 
Q 28.90625 -6.25 25 -5.078125 
Q 34.375 3.90625 38.671875 15.03125 
Q 42.96875 26.171875 43.15625 38.671875 
Q 43.359375 51.171875 42.578125 59.375 
Q 46.875 58.59375 51.171875 58.203125 
z
M 77.34375 66.796875 
Q 76.953125 62.5 76.953125 55.859375 
L 76.953125 28.515625 
Q 76.953125 20.3125 77.34375 13.28125 
L 69.53125 13.28125 
Q 69.921875 17.96875 69.921875 28.515625 
L 69.921875 55.859375 
Q 69.921875 62.5 69.53125 66.796875 
L 77.34375 66.796875 
z
M 26.5625 26.171875 
Q 21.484375 16.796875 17.375 7.609375 
Q 13.28125 -1.5625 11.328125 -6.25 
Q 7.8125 -3.125 3.125 -0.390625 
Q 7.421875 4.6875 11.90625 13.28125 
Q 16.40625 21.875 19.53125 31.25 
Q 23.046875 28.515625 26.5625 26.171875 
z
M 53.125 16.40625 
Q 59.375 10.15625 67.1875 -1.953125 
Q 64.0625 -3.515625 60.546875 -7.03125 
Q 54.296875 4.296875 47.265625 11.71875 
Q 50.390625 13.671875 53.125 16.40625 
z
M 9.375 55.078125 
Q 17.578125 48.828125 23.4375 43.359375 
Q 20.3125 40.234375 17.96875 37.109375 
Q 12.890625 43.359375 4.6875 49.21875 
Q 7.03125 51.5625 9.375 55.078125 
z
M 21.09375 62.5 
Q 14.84375 68.359375 7.421875 73.046875 
Q 9.765625 75.78125 12.109375 78.90625 
Q 20.3125 73.4375 26.171875 68.359375 
Q 23.4375 66.40625 21.09375 62.5 
z
" id="SimHei-27979"/>
       <path d="M 61.71875 59.765625 
Q 61.328125 67.578125 61.328125 71.09375 
Q 61.328125 75 60.9375 81.640625 
Q 65.625 80.46875 69.53125 80.078125 
Q 69.140625 75.390625 69.140625 71.875 
L 69.140625 59.765625 
L 80.46875 59.765625 
Q 85.9375 59.765625 91.796875 60.15625 
L 91.796875 53.125 
Q 86.328125 53.515625 80.078125 53.515625 
L 69.53125 53.515625 
Q 70.3125 42.96875 71.671875 34.5625 
Q 73.046875 26.171875 75.578125 17.375 
Q 78.125 8.59375 81.4375 3.515625 
Q 84.765625 -1.5625 85.9375 3.125 
Q 87.109375 7.8125 87.5 14.0625 
Q 90.625 9.765625 95.3125 8.203125 
Q 93.359375 -4.296875 89.84375 -7.609375 
Q 86.328125 -10.9375 82.03125 -8.390625 
Q 77.734375 -5.859375 74.015625 0.96875 
Q 70.3125 7.8125 67.765625 16.796875 
Q 65.234375 25.78125 64.0625 35.34375 
Q 62.890625 44.921875 62.109375 53.515625 
L 43.75 53.515625 
Q 35.9375 53.515625 29.296875 53.125 
L 29.296875 60.15625 
Q 35.546875 59.765625 43.359375 59.765625 
z
M 23.4375 49.609375 
Q 23.046875 41.796875 23.046875 33.984375 
L 23.046875 9.765625 
Q 28.515625 14.84375 33.203125 19.140625 
Q 34.765625 15.625 37.109375 12.5 
Q 29.6875 6.640625 17.578125 -5.46875 
Q 15.625 -1.953125 12.890625 0.78125 
Q 16.015625 2.734375 16.015625 8.203125 
L 16.015625 42.578125 
Q 9.765625 42.578125 4.6875 42.1875 
L 4.6875 50 
Q 9.765625 49.609375 12.890625 49.609375 
z
M 58.984375 33.984375 
Q 54.6875 34.375 50.78125 34.375 
L 50.78125 8.984375 
Q 55.859375 10.546875 60.9375 12.5 
Q 60.9375 8.203125 61.71875 5.078125 
Q 55.859375 3.90625 49.21875 1.953125 
Q 42.578125 0 35.546875 -2.734375 
Q 34.375 1.5625 31.640625 4.6875 
Q 37.890625 5.46875 43.75 7.421875 
L 43.75 34.375 
Q 39.453125 34.375 34.765625 33.984375 
L 34.765625 41.40625 
Q 40.625 41.015625 46.875 41.015625 
Q 53.515625 41.015625 58.984375 41.40625 
z
M 14.453125 77.734375 
Q 19.921875 72.65625 26.5625 64.0625 
Q 23.828125 61.328125 20.703125 58.984375 
Q 18.359375 63.28125 8.984375 72.65625 
Q 12.109375 75.390625 14.453125 77.734375 
z
M 80.46875 80.46875 
Q 83.203125 78.125 91.40625 68.359375 
Q 87.109375 65.625 84.765625 63.28125 
Q 80.078125 70.703125 74.609375 76.171875 
Q 76.953125 77.734375 80.46875 80.46875 
z
" id="SimHei-35797"/>
       <path d="M 25 43.359375 
Q 29.6875 47.65625 35.546875 59.171875 
Q 41.40625 70.703125 43.75 80.859375 
Q 48.046875 78.90625 53.125 77.34375 
Q 50.78125 74.609375 46.875 64.0625 
L 75.390625 64.0625 
Q 84.375 64.0625 91.796875 64.453125 
L 91.796875 57.421875 
Q 83.984375 57.8125 75.390625 57.8125 
L 70.703125 57.8125 
L 70.703125 44.53125 
Q 82.03125 44.53125 89.0625 44.921875 
L 89.0625 37.890625 
Q 82.03125 38.28125 70.703125 38.28125 
L 70.703125 25 
Q 82.421875 25 89.0625 25.390625 
L 89.0625 18.75 
Q 82.421875 19.140625 70.703125 19.140625 
L 70.703125 5.859375 
Q 87.109375 5.859375 94.53125 6.25 
L 94.53125 -1.5625 
Q 87.109375 -1.171875 77.734375 -1.171875 
L 46.09375 -1.171875 
L 46.09375 -9.375 
L 37.890625 -9.375 
Q 38.28125 -2.34375 38.28125 10.546875 
L 38.28125 47.65625 
Q 35.9375 43.359375 32.421875 37.5 
Q 29.296875 41.40625 25 43.359375 
z
M 26.171875 32.03125 
Q 22.265625 22.265625 18.75 13.28125 
Q 15.234375 4.296875 12.109375 -1.953125 
Q 8.59375 0.78125 4.296875 3.125 
Q 8.59375 10.15625 12.109375 17.375 
Q 15.625 24.609375 19.140625 35.9375 
Q 21.875 33.203125 26.171875 32.03125 
z
M 62.890625 25 
L 62.890625 38.28125 
L 46.09375 38.28125 
L 46.09375 25 
z
M 62.890625 44.53125 
L 62.890625 57.8125 
L 46.09375 57.8125 
L 46.09375 44.53125 
z
M 62.890625 5.859375 
L 62.890625 19.140625 
L 46.09375 19.140625 
L 46.09375 5.859375 
z
M 11.328125 74.609375 
Q 13.28125 72.265625 18.15625 67.375 
Q 23.046875 62.5 27.34375 57.8125 
Q 23.828125 54.296875 21.484375 51.5625 
Q 17.1875 57.8125 5.46875 69.53125 
Q 8.59375 71.875 11.328125 74.609375 
z
M 64.84375 81.640625 
Q 71.875 75 75 70.3125 
Q 72.265625 68.75 68.75 65.625 
Q 66.015625 70.3125 58.984375 76.953125 
Q 61.328125 78.125 64.84375 81.640625 
z
" id="SimHei-20934"/>
       <path d="M 77.734375 -3.125 
Q 82.03125 -2.734375 83.78125 -1.953125 
Q 85.546875 -1.171875 85.546875 1.953125 
L 85.546875 15.234375 
L 72.265625 15.234375 
L 72.265625 -6.25 
L 65.625 -6.25 
L 65.625 15.234375 
L 54.6875 15.234375 
Q 54.296875 9.765625 51.953125 3.703125 
Q 49.609375 -2.34375 43.75 -9.375 
Q 41.015625 -5.46875 36.328125 -5.078125 
Q 41.40625 -0.78125 43.9375 4.09375 
Q 46.484375 8.984375 47.265625 15.625 
Q 48.046875 22.265625 48.234375 34.171875 
Q 48.4375 46.09375 48.046875 53.515625 
L 66.40625 53.515625 
Q 69.921875 59.765625 72.65625 66.015625 
L 56.640625 66.015625 
Q 51.953125 60.546875 44.53125 50.78125 
Q 41.40625 53.515625 37.890625 54.6875 
Q 44.921875 62.109375 49.609375 69.140625 
Q 54.296875 76.171875 56.640625 82.8125 
Q 60.9375 80.859375 65.625 79.6875 
Q 63.671875 78.515625 59.765625 71.484375 
L 83.59375 71.484375 
Q 76.5625 58.984375 74.21875 53.515625 
L 92.96875 53.515625 
Q 92.578125 46.484375 92.578125 38.28125 
L 92.578125 -0.78125 
Q 92.96875 -5.46875 90.234375 -7.21875 
Q 87.5 -8.984375 80.859375 -10.546875 
Q 80.46875 -6.640625 77.734375 -3.125 
z
M 3.125 30.859375 
Q 8.59375 35.9375 13.28125 44.328125 
Q 17.96875 52.734375 20.3125 66.015625 
Q 12.890625 66.015625 8.203125 65.625 
L 8.203125 72.65625 
Q 13.671875 72.265625 18.75 72.265625 
L 29.6875 72.265625 
Q 36.328125 72.265625 41.015625 72.65625 
L 41.015625 65.625 
Q 36.328125 66.015625 28.125 66.015625 
Q 25.78125 55.078125 21.875 45.703125 
L 39.453125 45.703125 
Q 39.0625 39.0625 39.0625 33.203125 
L 39.0625 16.796875 
Q 39.0625 10.15625 39.453125 1.953125 
L 32.421875 1.953125 
L 32.421875 9.375 
L 21.09375 9.375 
L 21.09375 -4.6875 
L 14.0625 -4.6875 
Q 14.453125 3.515625 14.453125 9.375 
L 14.453125 32.8125 
Q 12.5 29.6875 9.765625 25.390625 
Q 7.421875 28.515625 3.125 30.859375 
z
M 32.421875 15.234375 
L 32.421875 40.234375 
L 21.09375 40.234375 
L 21.09375 15.234375 
z
M 85.546875 36.71875 
L 85.546875 48.046875 
L 72.265625 48.046875 
L 72.265625 36.71875 
z
M 85.546875 20.703125 
L 85.546875 31.25 
L 72.265625 31.25 
L 72.265625 20.703125 
z
M 65.625 36.71875 
L 65.625 48.046875 
L 54.6875 48.046875 
L 54.6875 36.71875 
z
M 65.625 20.703125 
L 65.625 31.25 
L 54.6875 31.25 
L 54.6875 20.703125 
z
" id="SimHei-30830"/>
       <path d="M 51.953125 80.46875 
Q 53.515625 76.5625 55.46875 70.703125 
L 75 70.703125 
Q 82.03125 70.703125 90.625 71.09375 
L 90.625 64.453125 
Q 82.03125 65.234375 74.609375 65.234375 
L 43.75 65.234375 
Q 46.484375 63.28125 51.5625 60.9375 
Q 48.046875 58.59375 44.921875 55.265625 
Q 41.796875 51.953125 38.671875 48.828125 
L 51.171875 48.828125 
Q 55.859375 53.515625 58.984375 58.984375 
Q 62.5 56.25 66.796875 53.515625 
Q 61.71875 50.78125 56.25 44.921875 
Q 50.78125 39.0625 41.015625 31.25 
L 60.15625 32.8125 
Q 58.203125 35.15625 56.25 37.890625 
Q 58.59375 38.671875 62.5 41.40625 
Q 66.40625 36.71875 73.4375 26.5625 
Q 69.921875 25.390625 66.015625 22.65625 
Q 65.234375 25 62.890625 27.734375 
Q 57.8125 27.34375 53.515625 27.34375 
L 53.515625 16.40625 
L 80.46875 16.40625 
Q 88.671875 16.40625 95.3125 16.796875 
L 95.3125 10.15625 
Q 89.0625 10.546875 80.078125 10.546875 
L 53.515625 10.546875 
L 53.515625 2.734375 
Q 53.515625 -4.6875 53.90625 -9.765625 
L 45.3125 -9.765625 
Q 45.703125 -4.6875 45.703125 2.734375 
L 45.703125 10.546875 
L 20.703125 10.546875 
Q 12.890625 10.546875 5.078125 10.15625 
L 5.078125 16.796875 
Q 12.890625 16.40625 21.09375 16.40625 
L 45.703125 16.40625 
L 45.703125 26.5625 
Q 42.1875 26.171875 38.671875 25.578125 
Q 35.15625 25 31.640625 23.828125 
Q 30.46875 27.734375 28.90625 31.25 
Q 32.421875 31.640625 36.328125 34.375 
Q 40.234375 37.109375 46.484375 43.75 
Q 35.9375 42.578125 31.640625 41.015625 
Q 30.859375 44.921875 28.90625 49.609375 
Q 32.421875 49.609375 36.328125 54.484375 
Q 40.234375 59.375 42.96875 65.234375 
L 26.5625 65.234375 
Q 17.96875 65.234375 10.15625 64.453125 
L 10.15625 71.09375 
Q 17.96875 70.703125 24.21875 70.703125 
L 46.484375 70.703125 
Q 45.3125 75.390625 43.75 78.515625 
Q 47.265625 79.296875 51.953125 80.46875 
z
M 25.390625 40.234375 
Q 26.953125 37.5 28.515625 34.375 
Q 24.609375 32.03125 20.703125 29.09375 
Q 16.796875 26.171875 12.5 22.265625 
Q 9.765625 26.171875 7.421875 29.296875 
Q 12.5 31.640625 17.1875 34.5625 
Q 21.875 37.5 25.390625 40.234375 
z
M 75.78125 41.40625 
Q 80.078125 38.671875 83.390625 36.515625 
Q 86.71875 34.375 91.796875 30.46875 
Q 88.671875 28.125 85.9375 25 
Q 82.8125 27.734375 79.09375 30.859375 
Q 75.390625 33.984375 71.484375 36.328125 
Q 73.828125 38.671875 75.78125 41.40625 
z
M 89.453125 55.078125 
Q 86.71875 53.90625 82.8125 50.96875 
Q 78.90625 48.046875 75 44.140625 
Q 72.265625 47.65625 69.921875 49.609375 
Q 73.4375 51.953125 76.171875 54.484375 
Q 78.90625 57.03125 82.8125 61.328125 
Q 86.328125 57.8125 89.453125 55.078125 
z
M 16.40625 60.15625 
Q 22.265625 56.25 27.734375 51.171875 
Q 24.609375 48.4375 22.265625 45.703125 
Q 16.796875 51.5625 10.546875 55.078125 
Q 13.671875 57.8125 16.40625 60.15625 
z
" id="SimHei-29575"/>
      </defs>
      <use xlink:href="#SimHei-27979"/>
      <use x="100" xlink:href="#SimHei-35797"/>
      <use x="200" xlink:href="#SimHei-38598"/>
      <use x="300" xlink:href="#SimHei-20934"/>
      <use x="400" xlink:href="#SimHei-30830"/>
      <use x="500" xlink:href="#SimHei-29575"/>
     </g>
    </g>
   </g>
   <g id="line2d_35">
    <path clip-path="url(#p7bcc47c85f)" d="M 73.832727 266.839579 
L 90.919809 209.542737 
L 108.00689 171.344842 
L 125.093971 114.048 
L 142.181053 94.949053 
L 159.268134 98.132211 
L 176.355215 85.399579 
L 193.442297 82.216421 
L 210.529378 75.850105 
L 227.616459 85.399579 
L 244.703541 69.483789 
L 261.790622 59.934316 
L 278.877703 59.934316 
L 295.964785 53.568 
L 313.051866 59.934316 
L 330.138947 63.117474 
L 347.226029 63.117474 
L 364.31311 56.751158 
L 381.400191 56.751158 
L 398.487273 56.751158 
" style="fill:none;stroke:#ff0000;stroke-linecap:square;stroke-width:1.5;"/>
   </g>
   <g id="line2d_36">
    <path clip-path="url(#p7bcc47c85f)" d="M 73.832727 295.488 
L 90.919809 206.359579 
L 108.00689 187.260632 
L 125.093971 142.696421 
L 142.181053 142.696421 
L 159.268134 126.780632 
L 176.355215 114.048 
L 193.442297 88.582737 
L 210.529378 88.582737 
L 227.616459 79.033263 
L 244.703541 79.033263 
L 261.790622 69.483789 
L 278.877703 69.483789 
L 295.964785 59.934316 
L 313.051866 59.934316 
L 330.138947 63.117474 
L 347.226029 59.934316 
L 364.31311 56.751158 
L 381.400191 56.751158 
L 398.487273 59.934316 
" style="fill:none;stroke:#0000ff;stroke-linecap:square;stroke-width:1.5;"/>
   </g>
   <g id="patch_3">
    <path d="M 57.6 307.584 
L 57.6 41.472 
" style="fill:none;stroke:#000000;stroke-linecap:square;stroke-linejoin:miter;stroke-width:0.8;"/>
   </g>
   <g id="patch_4">
    <path d="M 414.72 307.584 
L 414.72 41.472 
" style="fill:none;stroke:#000000;stroke-linecap:square;stroke-linejoin:miter;stroke-width:0.8;"/>
   </g>
   <g id="patch_5">
    <path d="M 57.6 307.584 
L 414.72 307.584 
" style="fill:none;stroke:#000000;stroke-linecap:square;stroke-linejoin:miter;stroke-width:0.8;"/>
   </g>
   <g id="patch_6">
    <path d="M 57.6 41.472 
L 414.72 41.472 
" style="fill:none;stroke:#000000;stroke-linecap:square;stroke-linejoin:miter;stroke-width:0.8;"/>
   </g>
   <g id="text_20">
    <!-- KNN识别手写数据集 -->
    <g transform="translate(185.16 35.472)scale(0.12 -0.12)">
     <defs>
      <path d="M 47.65625 1.953125 
L 37.5 1.953125 
L 19.53125 35.15625 
L 13.28125 26.953125 
L 13.28125 1.953125 
L 4.296875 1.953125 
L 4.296875 68.75 
L 13.28125 68.75 
L 13.28125 39.84375 
L 35.546875 68.75 
L 46.09375 68.75 
L 25.390625 42.578125 
z
" id="SimHei-75"/>
      <path d="M 44.53125 1.953125 
L 34.765625 1.953125 
L 13.28125 50.390625 
L 12.890625 50.390625 
L 12.890625 1.953125 
L 3.90625 1.953125 
L 3.90625 68.75 
L 13.671875 68.75 
L 35.15625 20.3125 
L 35.546875 20.3125 
L 35.546875 68.75 
L 44.53125 68.75 
z
" id="SimHei-78"/>
      <path d="M 87.109375 76.171875 
Q 86.71875 68.359375 86.71875 51.953125 
Q 86.71875 35.9375 87.109375 28.90625 
L 40.625 28.90625 
Q 41.015625 35.546875 41.015625 51.953125 
Q 41.015625 68.359375 40.625 76.171875 
L 87.109375 76.171875 
z
M 78.515625 35.546875 
L 78.515625 68.75 
L 49.21875 68.75 
L 49.21875 35.546875 
z
M 25.78125 52.34375 
Q 25.390625 45.3125 25.390625 35.9375 
L 25.390625 13.28125 
Q 29.296875 17.1875 33.984375 23.046875 
Q 35.546875 19.140625 38.28125 14.84375 
Q 32.421875 9.375 28.3125 4.6875 
Q 24.21875 0 19.921875 -5.46875 
Q 17.1875 -1.171875 13.28125 1.5625 
Q 17.578125 5.078125 17.578125 9.375 
L 17.578125 45.703125 
Q 8.984375 45.703125 3.90625 45.3125 
L 3.90625 52.734375 
Q 8.59375 52.34375 14.453125 52.34375 
z
M 75.390625 22.265625 
Q 90.234375 5.46875 95.703125 -2.34375 
Q 91.40625 -5.46875 88.28125 -8.59375 
Q 80.46875 3.125 69.140625 16.40625 
Q 72.265625 18.359375 75.390625 22.265625 
z
M 58.59375 16.796875 
Q 54.6875 12.109375 49.21875 4.6875 
Q 43.75 -2.734375 37.109375 -10.15625 
Q 35.15625 -7.8125 30.859375 -4.6875 
Q 46.09375 11.328125 50.78125 21.875 
Q 54.6875 19.140625 58.59375 16.796875 
z
M 19.921875 82.421875 
Q 28.90625 72.265625 32.03125 67.1875 
Q 28.515625 64.84375 25.390625 61.328125 
Q 17.96875 72.65625 13.671875 77.34375 
Q 16.796875 79.296875 19.921875 82.421875 
z
" id="SimHei-35782"/>
      <path d="M 51.171875 77.34375 
Q 50.78125 71.875 50.78125 61.328125 
Q 50.78125 50.78125 51.171875 46.484375 
L 12.5 46.484375 
Q 12.890625 51.171875 12.890625 62.109375 
Q 12.890625 73.4375 12.5 77.34375 
L 51.171875 77.34375 
z
M 25.78125 33.203125 
Q 25.78125 37.5 25.390625 45.703125 
Q 30.46875 44.921875 34.765625 44.53125 
Q 33.59375 41.015625 33.203125 33.203125 
L 56.25 33.203125 
Q 55.859375 28.90625 55.859375 21.484375 
L 55.078125 1.953125 
Q 54.6875 -4.296875 50 -6.25 
Q 45.3125 -8.203125 38.671875 -9.375 
Q 37.109375 -4.296875 35.15625 -0.390625 
Q 42.578125 -0.390625 45.3125 0.390625 
Q 48.046875 1.171875 48.046875 5.078125 
L 48.828125 26.171875 
L 32.8125 26.171875 
Q 31.640625 13.671875 27.140625 6.25 
Q 22.65625 -1.171875 10.15625 -10.546875 
Q 7.421875 -6.25 3.90625 -3.515625 
Q 14.0625 1.953125 19.328125 8.984375 
Q 24.609375 16.015625 25 26.171875 
L 17.578125 26.171875 
Q 12.890625 26.171875 7.03125 25.78125 
L 7.03125 33.59375 
Q 12.5 33.203125 17.578125 33.203125 
z
M 90.625 80.078125 
Q 90.234375 76.171875 90.234375 68.359375 
L 90.234375 2.734375 
Q 90.234375 -5.46875 86.328125 -7.03125 
Q 82.421875 -8.59375 73.4375 -10.15625 
Q 72.265625 -5.46875 69.921875 -1.171875 
Q 78.125 -1.171875 80.46875 -0.1875 
Q 82.8125 0.78125 82.8125 5.078125 
L 82.8125 68.359375 
Q 82.8125 75.390625 82.421875 80.078125 
L 90.625 80.078125 
z
M 71.875 68.75 
Q 71.484375 64.0625 71.484375 57.8125 
L 71.484375 25 
Q 71.484375 17.578125 71.875 11.328125 
L 63.671875 11.328125 
Q 64.0625 17.578125 64.0625 25 
L 64.0625 57.8125 
Q 64.0625 64.0625 63.671875 68.75 
L 71.875 68.75 
z
M 43.359375 53.515625 
L 43.359375 70.3125 
L 20.3125 70.3125 
L 20.3125 53.515625 
z
" id="SimHei-21035"/>
      <path d="M 86.328125 69.140625 
Q 80.859375 68.75 55.46875 66.40625 
L 55.46875 50.78125 
L 73.046875 50.78125 
Q 79.6875 50.78125 86.328125 51.171875 
L 86.328125 43.75 
Q 79.6875 43.75 73.046875 44.140625 
L 55.46875 44.140625 
L 55.46875 29.6875 
L 83.203125 29.6875 
Q 89.0625 29.6875 95.3125 30.078125 
L 95.3125 22.65625 
Q 89.0625 23.046875 83.203125 23.046875 
L 55.46875 23.046875 
L 55.46875 1.953125 
Q 55.859375 -3.90625 51.75 -6.25 
Q 47.65625 -8.59375 37.890625 -9.375 
Q 37.5 -4.6875 33.984375 -0.390625 
Q 41.40625 -0.390625 44.53125 0.578125 
Q 47.65625 1.5625 47.265625 5.46875 
L 47.265625 23.046875 
L 19.140625 23.046875 
Q 12.109375 22.65625 5.859375 22.65625 
L 5.859375 30.078125 
Q 12.5 29.6875 19.140625 29.6875 
L 47.265625 29.6875 
L 47.265625 44.140625 
L 30.078125 44.140625 
Q 23.046875 44.140625 15.625 43.75 
L 15.625 51.171875 
Q 22.65625 50.78125 30.078125 50.78125 
L 47.265625 50.78125 
L 47.265625 65.625 
Q 26.953125 64.453125 16.40625 64.0625 
Q 15.234375 68.359375 12.890625 71.484375 
Q 26.953125 71.09375 49.40625 72.84375 
Q 71.875 74.609375 81.25 78.125 
Q 83.59375 72.65625 86.328125 69.140625 
z
" id="SimHei-25163"/>
      <path d="M 35.9375 62.890625 
Q 34.765625 56.640625 34.375 51.953125 
L 67.1875 51.953125 
Q 73.4375 51.953125 79.296875 52.34375 
L 79.296875 45.3125 
Q 73.828125 45.703125 69.921875 45.703125 
L 33.984375 45.703125 
L 32.421875 33.203125 
L 85.9375 33.203125 
Q 85.9375 22.265625 84.5625 9.375 
Q 83.203125 -3.515625 78.125 -5.65625 
Q 73.046875 -7.8125 62.109375 -8.984375 
Q 61.328125 -4.6875 58.59375 -0.78125 
Q 68.75 -0.78125 70.890625 0 
Q 73.046875 0.78125 75 2.921875 
Q 76.953125 5.078125 77.734375 26.953125 
L 24.21875 26.953125 
Q 27.34375 57.8125 27.34375 63.671875 
L 35.9375 62.890625 
z
M 91.796875 75 
Q 91.40625 70.703125 91.40625 66.796875 
Q 91.40625 62.890625 91.796875 57.421875 
L 83.984375 57.421875 
L 83.984375 68.359375 
L 16.40625 68.359375 
L 16.40625 55.46875 
L 8.59375 55.46875 
Q 8.984375 60.15625 8.984375 64.84375 
Q 8.984375 69.921875 8.59375 75 
L 91.796875 75 
z
M 51.5625 15.234375 
Q 58.59375 15.234375 66.015625 15.625 
L 66.015625 8.203125 
Q 58.59375 8.59375 51.5625 8.59375 
L 24.21875 8.59375 
Q 16.015625 8.59375 9.765625 8.203125 
L 9.765625 15.625 
Q 16.015625 15.234375 23.828125 15.234375 
z
" id="SimHei-20889"/>
      <path d="M 89.84375 74.609375 
Q 89.453125 71.09375 89.453125 66.015625 
L 89.453125 60.9375 
Q 89.453125 53.90625 89.84375 50.78125 
L 48.4375 50.78125 
L 48.4375 39.0625 
L 66.40625 39.0625 
Q 66.40625 42.578125 66.015625 49.609375 
L 73.4375 49.609375 
Q 73.046875 43.359375 73.046875 39.0625 
L 83.59375 39.0625 
Q 90.625 39.0625 95.3125 39.453125 
L 95.3125 32.421875 
Q 90.625 32.8125 83.984375 32.8125 
L 73.046875 32.8125 
L 73.046875 22.265625 
L 90.234375 22.265625 
Q 89.84375 14.84375 89.84375 12.5 
L 89.84375 2.734375 
Q 89.84375 -3.515625 90.234375 -8.984375 
L 83.203125 -8.984375 
L 83.203125 -3.515625 
L 57.421875 -3.515625 
L 57.421875 -9.375 
L 50.390625 -9.375 
Q 50.78125 -5.078125 50.78125 1.5625 
L 50.78125 12.890625 
Q 50.78125 16.796875 50.390625 22.265625 
L 66.40625 22.265625 
L 66.40625 32.8125 
L 48.046875 32.8125 
Q 47.65625 21.484375 45.109375 11.515625 
Q 42.578125 1.5625 37.890625 -7.421875 
Q 34.375 -5.078125 30.46875 -3.90625 
Q 35.15625 2.34375 37.296875 9.375 
Q 39.453125 16.40625 40.625 24.40625 
Q 41.796875 32.421875 41.796875 41.015625 
L 41.796875 55.859375 
Q 41.796875 62.109375 41.40625 74.609375 
L 89.84375 74.609375 
z
M 19.921875 69.140625 
Q 19.921875 74.609375 19.53125 79.296875 
L 27.34375 79.296875 
Q 26.953125 75 26.953125 69.140625 
L 26.953125 58.984375 
Q 30.859375 58.984375 39.0625 59.375 
L 39.0625 52.734375 
Q 30.859375 53.125 26.953125 53.125 
L 26.953125 38.28125 
Q 32.03125 41.015625 37.5 44.53125 
Q 37.890625 41.40625 39.453125 38.671875 
Q 32.03125 34.375 26.953125 31.25 
L 26.953125 2.734375 
Q 26.953125 -4.6875 23.234375 -6.25 
Q 19.53125 -7.8125 12.109375 -8.984375 
Q 11.328125 -5.078125 9.375 -0.78125 
Q 16.015625 -0.78125 17.96875 -0.1875 
Q 19.921875 0.390625 19.921875 5.078125 
L 19.921875 28.125 
Q 14.0625 25 8.203125 20.703125 
Q 7.03125 23.828125 4.296875 28.125 
Q 12.109375 30.859375 19.921875 35.15625 
L 19.921875 53.125 
Q 12.5 53.125 5.46875 52.734375 
L 5.46875 59.375 
Q 12.5 58.984375 19.921875 58.984375 
z
M 82.8125 56.640625 
L 82.8125 68.75 
L 48.4375 68.75 
L 48.4375 56.640625 
z
M 83.203125 2.34375 
L 83.203125 16.796875 
L 57.421875 16.796875 
L 57.421875 2.34375 
z
" id="SimHei-25454"/>
     </defs>
     <use xlink:href="#SimHei-75"/>
     <use x="50" xlink:href="#SimHei-78"/>
     <use x="100" xlink:href="#SimHei-78"/>
     <use x="150" xlink:href="#SimHei-35782"/>
     <use x="250" xlink:href="#SimHei-21035"/>
     <use x="350" xlink:href="#SimHei-25163"/>
     <use x="450" xlink:href="#SimHei-20889"/>
     <use x="550" xlink:href="#SimHei-25968"/>
     <use x="650" xlink:href="#SimHei-25454"/>
     <use x="750" xlink:href="#SimHei-38598"/>
    </g>
   </g>
   <g id="legend_1">
    <g id="patch_7">
     <path d="M 64.6 75.972 
L 111.6 75.972 
Q 113.6 75.972 113.6 73.972 
L 113.6 48.472 
Q 113.6 46.472 111.6 46.472 
L 64.6 46.472 
Q 62.6 46.472 62.6 48.472 
L 62.6 73.972 
Q 62.6 75.972 64.6 75.972 
z
" style="fill:#ffffff;opacity:0.8;stroke:#cccccc;stroke-linejoin:miter;"/>
    </g>
    <g id="line2d_37">
     <path d="M 66.6 53.972 
L 86.6 53.972 
" style="fill:none;stroke:#ff0000;stroke-linecap:square;stroke-width:1.5;"/>
    </g>
    <g id="line2d_38"/>
    <g id="text_21">
     <!-- k=3 -->
     <g transform="translate(94.6 57.472)scale(0.1 -0.1)">
      <defs>
       <path d="M 45.703125 1.953125 
L 36.71875 1.953125 
L 22.65625 25.78125 
L 13.671875 17.1875 
L 13.671875 1.953125 
L 5.859375 1.953125 
L 5.859375 68.75 
L 13.671875 68.75 
L 13.671875 26.171875 
L 33.203125 45.703125 
L 42.96875 45.703125 
L 27.734375 30.859375 
z
" id="SimHei-107"/>
       <path d="M 46.484375 45.3125 
L 1.953125 45.3125 
L 1.953125 51.5625 
L 46.484375 51.5625 
z
M 46.484375 21.484375 
L 1.953125 21.484375 
L 1.953125 27.734375 
L 46.484375 27.734375 
z
" id="SimHei-61"/>
      </defs>
      <use xlink:href="#SimHei-107"/>
      <use x="50" xlink:href="#SimHei-61"/>
      <use x="100" xlink:href="#SimHei-51"/>
     </g>
    </g>
    <g id="line2d_39">
     <path d="M 66.6 67.222 
L 86.6 67.222 
" style="fill:none;stroke:#0000ff;stroke-linecap:square;stroke-width:1.5;"/>
    </g>
    <g id="line2d_40"/>
    <g id="text_22">
     <!-- k=5 -->
     <g transform="translate(94.6 70.722)scale(0.1 -0.1)">
      <use xlink:href="#SimHei-107"/>
      <use x="50" xlink:href="#SimHei-61"/>
      <use x="100" xlink:href="#SimHei-53"/>
     </g>
    </g>
   </g>
  </g>
 </g>
 <defs>
  <clipPath id="p7bcc47c85f">
   <rect height="266.112" width="357.12" x="57.6" y="41.472"/>
  </clipPath>
 </defs>
</svg>
